:SAMPLES-PER-SECOND 30
:FULLY-SPECIFIED
:DEGREES
281
root  1.21541 40.8577 -5.63802 26.8824 82.2998 23.7307
RightUpLeg  3.74982 -9.62299 -6.79927
RightLeg  4.85155 -11.5176 3.59257
RightFoot  -8.01023 0.000943929 -1.89435
RightToes  0.000482159 0.542163 -0.142577
Spine  -2.96489 0.288381 0.825322
Spine1  8.44799 0.600845 -0.665396
HEad  12.1226 3.1192 -2.64905
LeftShoulder1  8.745 -12.7957 -46.8112
LeftArm  -6.59955 24.5433 -27.0789
LeftForeArm  22.4687 -14.2249 -5.22754
LeftHand  -0.25398 0.0180481 5.50724
RightShoulder  5.75257 9.56038 37.9899
RightArm  -2.64286 -14.3197 33.1161
RightForeArm  7.03837 13.0222 7.06973
RightHand  -0.487669 -0.486313 -11.4939
LeftUpLeg  2.3033 2.31327 -2.80897
LeftLeg  -2.41696 20.9148 -5.80026
LeftFoot  -3.28503 -0.231181 3.56082
LeftToes  1.06245e-005 4.65856e-005 -8.18503e-006
282
root  1.30459 40.8088 -5.69369 26.7644 82.4263 23.6781
RightUpLeg  4.0108 -9.71139 -6.95651
RightLeg  4.88989 -11.2696 3.65006
RightFoot  -8.50369 -0.0247898 -1.31037
RightToes  0.000482159 0.542163 -0.142577
Spine  -2.8995 0.282937 0.823676
Spine1  8.6092 0.596699 -0.641089
HEad  12.8376 2.90624 -2.54336
LeftShoulder1  8.71638 -12.7437 -46.8071
LeftArm  -6.27214 24.7283 -27.1132
LeftForeArm  22.1425 -14.5767 -5.19639
LeftHand  -0.25398 0.0180481 5.50724
RightShoulder  5.72168 9.49929 37.9602
RightArm  -2.0361 -13.7882 33.096
RightForeArm  6.05757 13.9646 6.86086
RightHand  -0.520905 -0.237259 -11.7232
LeftUpLeg  1.91318 2.58922 -2.66076
LeftLeg  -0.839395 20.4763 -5.48823
LeftFoot  -4.641 -0.142719 2.91091
LeftToes  1.06245e-005 4.65856e-005 -8.18503e-006
283
root  1.41783 40.7412 -5.76243 25.9084 82.5039 23.0609
RightUpLeg  4.23521 -9.74036 -7.08356
RightLeg  5.52381 -11.1465 3.48558
RightFoot  -9.29921 -0.0545242 -0.483106
RightToes  0.000482159 0.542163 -0.142577
Spine  -2.81588 0.338767 0.947055
Spine1  8.92984 0.678549 -0.706859
HEad  13.8164 2.49251 -2.49087
LeftShoulder1  8.68302 -12.6883 -46.7867
LeftArm  -5.95485 24.6263 -27.1669
LeftForeArm  21.6878 -15.0327 -5.13586
LeftHand  -0.25398 0.0180481 5.50724
RightShoulder  5.6674 9.42924 37.7856
RightArm  -1.66921 -13.2717 33.2892
RightForeArm  5.56264 14.9418 6.55893
RightHand  -0.537549 0.0329321 -11.5261
LeftUpLeg  1.66003 2.7427 -2.56861
LeftLeg  0.954448 20.1413 -4.94165
LeftFoot  -6.29438 -0.0557192 2.12138
LeftToes  1.06245e-005 4.65856e-005 -8.18503e-006
284
root  1.54928 40.6524 -5.83531 24.2285 82.3874 21.7891
RightUpLeg  4.19704 -9.81939 -7.16891
RightLeg  7.11936 -10.9433 3.00165
RightFoot  -10.6091 -0.0718316 -0.099748
RightToes  0.000482159 0.542163 -0.142577
Spine  -2.58739 0.432028 0.965566
Spine1  9.28397 0.804342 -0.822252
HEad  14.9612 2.11272 -2.37436
LeftShoulder1  8.64403 -12.6223 -46.7664
LeftArm  -5.89987 24.3357 -27.1914
LeftForeArm  21.2755 -15.5595 -5.00665
LeftHand  -0.25398 0.0180481 5.50724
RightShoulder  5.6268 9.40081 37.5753
RightArm  -0.3987 -12.8495 33.5198
RightForeArm  3.96875 16.3995 6.20726
RightHand  -0.535928 0.101342 -11.3576
LeftUpLeg  1.64669 3.01288 -2.50087
LeftLeg  2.73298 19.9465 -4.35654
LeftFoot  -8.09514 0.0118847 1.30309
LeftToes  1.06245e-005 4.65856e-005 -8.18503e-006
285
root  1.68669 40.5294 -5.89878 22.2603 81.8351 20.3322
RightUpLeg  3.55167 -10.9924 -7.27334
RightLeg  9.93303 -8.99506 1.84275
RightFoot  -12.3371 -0.0765463 0.556576
RightToes  0.000482159 0.542163 -0.142577
Spine  -2.12716 0.555138 0.56262
Spine1  9.56678 0.9341 -0.947894
HEad  16.0991 2.00928 -2.21492
LeftShoulder1  8.59613 -12.497 -46.8735
LeftArm  -5.83073 23.9187 -27.0254
LeftForeArm  20.7347 -16.2538 -4.83571
LeftHand  -0.25398 0.0180481 5.50724
RightShoulder  5.60423 9.39802 37.4153
RightArm  1.72486 -12.3648 33.7223
RightForeArm  1.48815 18.184 5.81916
RightHand  -0.541698 0.0760951 -11.5291
LeftUpLeg  1.7782 3.70549 -2.48263
LeftLeg  4.55484 19.8189 -3.85743
LeftFoot  -9.95221 0.054436 0.405858
LeftToes  1.06245e-005 4.65856e-005 -8.18503e-006
286
root  1.81272 40.3613 -5.947 19.8752 80.5863 18.5824
RightUpLeg  1.68272 -13.0092 -7.19756
RightLeg  14.8055 -5.29862 -0.42832
RightFoot  -13.7278 -0.0404295 2.53728
RightToes  0.000482159 0.542163 -0.142577
Spine  -1.23378 0.763838 -0.231818
Spine1  9.71953 1.13038 -1.12543
HEad  16.962 2.29441 -2.12701
LeftShoulder1  8.52513 -12.3005 -47.0673
LeftArm  -5.56734 23.341 -26.6789
LeftForeArm  19.9589 -16.9899 -4.69333
LeftHand  -0.25398 0.0180481 5.50724
RightShoulder  5.57226 9.37087 37.2637
RightArm  3.26523 -11.617 34.143
RightForeArm  -0.0532874 19.6479 5.4728
RightHand  -0.584696 0.349648 -11.881
LeftUpLeg  1.96466 4.48521 -2.53248
LeftLeg  6.59921 20.1423 -3.41948
LeftFoot  -11.9059 0.0675713 -0.707833
LeftToes  1.06245e-005 4.65856e-005 -8.18503e-006
287
root  1.93155 40.1855 -5.97676 17.3217 78.663 16.8525
RightUpLeg  -1.78019 -10.2238 -6.82577
RightLeg  22.5273 -5.76609 -3.04734
RightFoot  -13.5083 -0.00421547 4.79285
RightToes  0.000482159 0.542163 -0.142577
Spine  0.201031 1.03511 -1.18521
Spine1  9.77452 1.41482 -1.47465
HEad  17.3826 2.96488 -2.1186
LeftShoulder1  8.44229 -12.1159 -47.1615
LeftArm  -5.24715 22.5656 -26.2591
LeftForeArm  19.2081 -17.4934 -4.6247
LeftHand  -0.25398 0.0180481 5.50724
RightShoulder  5.53318 9.32667 37.1133
RightArm  3.52179 -10.6713 35.026
RightForeArm  -0.470514 20.4779 5.27148
RightHand  -0.692401 1.10117 -12.4957
LeftUpLeg  2.48341 5.12612 -2.69434
LeftLeg  8.35744 21.0615 -3.06706
LeftFoot  -13.647 0.0463043 -1.78894
LeftToes  1.06245e-005 4.65856e-005 -8.18503e-006
288
root  2.08337 40.0434 -5.99131 15.0025 76.5871 15.3715
RightUpLeg  -6.37148 -5.53357 -6.66679
RightLeg  32.1118 -7.44825 -5.211
RightFoot  -11.1327 -0.0795587 5.13891
RightToes  0.000482159 0.542163 -0.142577
Spine  1.81616 1.18168 -1.94998
Spine1  9.84015 1.63778 -2.05032
HEad  17.5221 3.93526 -2.11634
LeftShoulder1  8.40615 -12.0506 -47.1566
LeftArm  -4.90934 21.6024 -25.6871
LeftForeArm  18.8437 -17.5823 -4.65174
LeftHand  -0.25398 0.0180481 5.50724
RightShoulder  5.52956 9.3168 37.118
RightArm  3.36298 -9.93376 36.1744
RightForeArm  -1.55161 21.0255 5.2076
RightHand  -0.870859 2.03205 -13.7819
LeftUpLeg  3.31634 5.63998 -2.91045
LeftLeg  9.50633 22.3534 -2.75996
LeftFoot  -14.9362 0.0148038 -2.40079
LeftToes  1.06245e-005 4.65856e-005 -8.18503e-006
289
root  2.31653 39.9532 -5.9993 12.8021 74.9753 13.673
RightUpLeg  -11.171 -3.26722 -6.38356
RightLeg  39.9543 -6.10138 -5.69247
RightFoot  -7.93001 -0.163626 3.69674
RightToes  0.000482159 0.542163 -0.142577
Spine  3.06096 1.03808 -2.23059
Spine1  9.95527 1.61679 -2.71103
HEad  17.7199 5.05715 -2.16367
LeftShoulder1  8.45531 -12.0998 -47.2851
LeftArm  -4.59774 20.3845 -24.8428
LeftForeArm  19.096 -17.0679 -4.8234
LeftHand  -0.25398 0.0180481 5.50724
RightShoulder  5.58441 9.36601 37.3707
RightArm  3.80817 -9.84758 37.0872
RightForeArm  -3.7867 21.6897 5.22579
RightHand  -1.06618 2.70964 -15.4758
LeftUpLeg  4.13147 5.94369 -2.99555
LeftLeg  10.0736 23.6374 -2.46073
LeftFoot  -15.8413 -0.00816988 -2.62506
LeftToes  1.06245e-005 4.65856e-005 -8.18503e-006
290
root  2.64474 39.903 -5.99688 10.4727 74.0117 11.3922
RightUpLeg  -15.3166 -2.60414 -5.70601
RightLeg  43.5216 -3.93502 -4.3137
RightFoot  -6.07656 -0.176788 2.90032
RightToes  0.000482159 0.542163 -0.142577
Spine  3.85377 0.661625 -2.15886
Spine1  10.0393 1.30042 -3.13201
HEad  18.093 6.17358 -2.37094
LeftShoulder1  8.52934 -12.1308 -47.6108
LeftArm  -4.75112 18.7741 -23.9849
LeftForeArm  20.084 -15.7287 -5.19173
LeftHand  -0.25398 0.0180481 5.50724
RightShoulder  5.66625 9.45912 37.6797
RightArm  4.98789 -10.5222 37.4849
RightForeArm  -5.30334 22.3851 5.25004
RightHand  -1.16121 2.90178 -16.4483
LeftUpLeg  4.72725 5.95858 -2.80634
LeftLeg  10.3265 24.5527 -2.14441
LeftFoot  -16.5974 -0.0404539 -3.04391
LeftToes  1.06245e-005 4.65856e-005 -8.18503e-006
291
root  3.04799 39.8868 -5.97373 7.74239 73.5701 8.44655
RightUpLeg  -18.3276 -2.97236 -4.51021
RightLeg  42.2646 -3.014 -3.21912
RightFoot  -5.83165 -0.224596 3.8523
RightToes  0.000482159 0.542163 -0.142577
Spine  4.59556 0.189191 -2.03281
Spine1  9.96836 0.729313 -2.95061
HEad  18.4267 7.1793 -2.68459
LeftShoulder1  8.52351 -12.052 -47.8213
LeftArm  -5.66615 16.8811 -23.6754
LeftForeArm  21.6254 -13.8459 -5.63014
LeftHand  -0.25398 0.0180481 5.50724
RightShoulder  5.72924 9.56911 37.7898
RightArm  6.63174 -11.6993 37.4602
RightForeArm  -4.69902 22.7524 5.21585
RightHand  -1.08597 2.58296 -15.9766
LeftUpLeg  5.29721 5.90047 -2.25814
LeftLeg  10.3203 24.9346 -1.90035
LeftFoot  -17.1933 -0.0827772 -3.63688
LeftToes  1.06245e-005 4.65856e-005 -8.18503e-006
292
root  3.49855 39.8755 -5.92546 4.96027 73.44 5.42461
RightUpLeg  -20.3255 -4.08118 -2.94101
RightLeg  37.1675 -3.66586 -3.21983
RightFoot  -5.80807 -0.276544 4.90076
RightToes  0.000482159 0.542163 -0.142577
Spine  5.70356 -0.29046 -2.12244
Spine1  9.67378 0.000509144 -2.20196
HEad  18.4401 8.04576 -2.94239
LeftShoulder1  8.4459 -11.9557 -47.6787
LeftArm  -6.64813 15.1623 -24.093
LeftForeArm  22.9855 -12.4925 -5.85607
LeftHand  -0.25398 0.0180481 5.50724
RightShoulder  5.76814 9.67746 37.7268
RightArm  8.57099 -13.0426 37.1753
RightForeArm  -2.93866 22.5869 5.13728
RightHand  -0.911929 1.94354 -14.5886
LeftUpLeg  5.96457 6.02621 -1.52275
LeftLeg  10.2693 24.9784 -1.70869
LeftFoot  -17.6582 -0.104394 -3.81281
LeftToes  1.06245e-005 4.65856e-005 -8.18503e-006
293
root  4.00075 39.8189 -5.8551 2.82275 73.4057 3.18953
RightUpLeg  -21.6731 -5.91651 -1.29354
RightLeg  29.8753 -4.26713 -2.89843
RightFoot  -4.98191 -0.310758 4.98296
RightToes  0.000482159 0.542163 -0.142577
Spine  7.27375 -0.707162 -2.49284
Spine1  9.20714 -0.718146 -1.29573
HEad  18.0354 8.80733 -3.13694
LeftShoulder1  8.43358 -12.0127 -47.4308
LeftArm  -6.74885 13.9428 -24.7114
LeftForeArm  23.4411 -12.5986 -5.81942
LeftHand  -0.25398 0.0180481 5.50724
RightShoulder  5.80993 9.78532 37.6874
RightArm  10.2143 -14.3665 36.725
RightForeArm  -1.46851 21.826 5.15368
RightHand  -0.750354 1.21679 -13.313
LeftUpLeg  6.72807 6.28486 -0.929177
LeftLeg  10.4916 24.8834 -1.4683
LeftFoot  -18.2715 -0.112075 -3.65765
LeftToes  1.06245e-005 4.65856e-005 -8.18503e-006
294
root  4.59149 39.685 -5.75577 1.95695 73.3797 2.41374
RightUpLeg  -22.5984 -8.74671 0.316089
RightLeg  21.8128 -2.73543 -1.53613
RightFoot  -3.66699 -0.389888 5.41821
RightToes  0.000482159 0.542163 -0.142577
Spine  9.00678 -1.02358 -3.16136
Spine1  8.7793 -1.32297 -0.496915
HEad  17.3396 9.47403 -3.39383
LeftShoulder1  8.5511 -12.2306 -47.4266
LeftArm  -5.75324 12.9983 -24.958
LeftForeArm  22.769 -13.9066 -5.64968
LeftHand  -0.25398 0.0180481 5.50724
RightShoulder  5.85858 9.89808 37.6828
RightArm  10.3044 -15.6349 36.3052
RightForeArm  0.0973531 20.3556 5.45351
RightHand  -0.639352 0.590193 -12.4899
LeftUpLeg  7.6398 6.50877 -0.696985
LeftLeg  11.0188 24.571 -1.21395
LeftFoot  -19.1804 -0.148229 -3.83571
LeftToes  1.06245e-005 4.65856e-005 -8.18503e-006
295
root  5.28464 39.5165 -5.62167 2.35013 73.5329 2.89882
RightUpLeg  -23.1461 -10.6831 1.07368
RightLeg  13.7591 -1.26636 0.374379
RightFoot  -2.54743 -0.511972 6.43111
RightToes  0.000482159 0.542163 -0.142577
Spine  10.4743 -1.3012 -3.94889
Spine1  8.64108 -1.8886 0.274351
HEad  16.5856 9.93185 -3.72661
LeftShoulder1  8.67853 -12.4142 -47.5821
LeftArm  -4.15662 11.8286 -24.8842
LeftForeArm  21.4326 -15.4042 -5.4568
LeftHand  -0.25398 0.0180481 5.50724
RightShoulder  5.87959 9.98249 37.569
RightArm  7.85976 -16.898 36.144
RightForeArm  3.10328 18.1665 6.08107
RightHand  -0.553317 0.107616 -11.7088
LeftUpLeg  8.82994 6.58124 -0.756233
LeftLeg  11.1607 24.1484 -1.23918
LeftFoot  -19.9382 -0.190999 -4.13343
LeftToes  1.06245e-005 4.65856e-005 -8.18503e-006
